<svg width="512" height="512" xmlns="http://www.w3.org/2000/svg" version="1.0" preserveAspectRatio="xMidYMid meet">
 <g id="Layer_1">
  <title>Layer 1</title>
  <text transform="matrix(4.73139, 0, 0, 3.89703, -323.45, -511.872)" xml:space="preserve" text-anchor="start" font-family="'Poppins SemiBold'" font-size="24" id="svg_1" y="230.22661" x="75.0528" stroke-width="0" stroke="#000" fill="#ffffff">AHK</text>
  <rect stroke-width="10" id="svg_3" height="63" width="64" y="397" x="198.5" stroke="#ffffff" fill="none"/>
  <rect id="svg_5" height="32" width="18" y="178" x="215.5" stroke-width="0" stroke="#ffffff" fill="none"/>
  <rect stroke-width="10" id="svg_8" height="63" width="64" y="397" x="38.5" stroke="#ffffff" fill="none"/>
  <rect stroke-width="10" id="svg_9" height="63" width="64" y="397" x="118.5" stroke="#ffffff" fill="none"/>
  <path id="svg_13" d="m279.29186,71.08134c-29.81448,-30.89018 -61.97105,-55.63515 -88.34934,-59.00864c-1.43602,-0.21882 -2.92332,-0.34647 -4.49611,-0.38294l-173.60441,0c-2.76946,0 -5.50474,1.14881 -7.45362,3.28231c-1.93179,2.0788 -3.07718,4.9964 -3.07718,7.96872l0,469.55266c0,2.95408 1.07701,5.78051 3.07718,7.93225c2.00017,2.11527 4.63287,3.26407 7.45362,3.26407l313.94104,0c2.76946,0 5.41926,-1.13057 7.41943,-3.26407c2.00017,-2.1335 3.11137,-4.95993 3.11137,-7.93225l0,-312.45766c-0.61544,-36.26952 -27.25016,-75.82136 -58.02199,-108.95445zm36.9262,410.12461l-292.87944,0l0,-447.08707l163.12489,0l0,0.03647c7.11171,-0.45588 13.24898,7.03873 17.95023,24.17968c4.27387,16.32037 5.35088,37.60068 5.33378,52.35284c0.03419,10.81339 -0.46158,18.07094 -0.46158,18.07094l-0.83768,11.88926l11.21462,0.12765c0.05129,0 25.91672,0.32823 51.28638,6.47344c24.37813,5.6164 43.43957,16.81272 45.21749,29.48608c0.06838,1.13057 0.08548,2.26115 0.06838,3.31878l0,301.15193l-0.0171,0z" stroke-width="0" stroke="#ffffff" fill="#ffffff"/>
 </g>
</svg>